<svg xmlns="http://www.w3.org/2000/svg" width="192" height="192" viewBox="0 0 192 192">
  <rect width="192" height="192" rx="32" fill="#2d5016"/>
  <g transform="translate(96, 96)">
    <path d="M 0 -50 C -25 -50 -45 -30 -45 -5 C -45 15 -30 30 -10 30 L -10 50 L 10 50 L 10 30 C 30 30 45 15 45 -5 C 45 -30 25 -50 0 -50 Z M -25 -10 C -25 -25 -15 -35 0 -35 C 15 -35 25 -25 25 -10 C 25 5 15 15 0 15 C -15 15 -25 5 -25 -10 Z" fill="#ffffff"/>
    <path d="M -3 -45 L -3 -10 L 3 -10 L 3 -45 Z" fill="#2d5016" opacity="0.4"/>
  </g>
</svg>
